<svg width="45" height="45" viewBox="0 0 45 45" fill="none" xmlns="http://www.w3.org/2000/svg">
<path d="M18.0355 9.78019L21.5848 17.9557C21.9854 17.9458 22.3881 17.9418 22.7934 17.9418C23.8321 17.9418 24.8575 17.9729 25.8661 18.0332L18.0355 0L9.431 19.8156C10.9254 19.3624 12.5104 18.9832 14.1677 18.6873L18.0355 9.78019ZM11.6641 17.682L18.0357 3.00889L23.8709 16.4484C23.5118 16.4404 23.1521 16.4374 22.7936 16.4374C22.6087 16.4374 22.4226 16.4384 22.2338 16.4404L19.0156 9.02816L18.0357 6.77131L17.055 9.02816L13.4641 17.2981C12.8567 17.4141 12.2553 17.5426 11.6641 17.682Z" fill="#022756"/>
<path d="M14.2894 45.0003C9.3188 42.4841 6.2812 39.1165 6.2812 35.4167C6.2812 34.1853 6.61745 32.9911 7.24989 31.8522H35.4956L30.3496 21.5853C32.3073 21.398 34.3347 21.2994 36.411 21.2994C39.2076 21.2994 41.9156 21.478 44.4846 21.8127C44.3365 21.7574 44.184 21.7052 44.0334 21.6513C44.184 21.7049 44.3367 21.7574 44.4846 21.8125C44.6572 21.8347 44.8286 21.8574 45 21.8813C44.5471 21.7491 44.0865 21.623 43.6172 21.5027C43.617 21.5024 43.6168 21.5024 43.6164 21.5022C39.4207 20.4245 34.5931 19.8075 29.4552 19.801C29.4248 19.8003 29.3939 19.8003 29.3635 19.8003C28.1941 19.8003 27.041 19.8319 25.9074 19.8936C25.5296 19.9141 25.1539 19.938 24.7806 19.9651C21.2007 20.2237 17.8357 20.7814 14.8079 21.581C14.5463 21.6501 14.2873 21.7209 14.0307 21.7934C12.2356 22.3018 10.5682 22.8972 9.05555 23.5668C3.47475 26.0344 0 29.5105 0 33.3611C0 38.3051 5.72868 42.6312 14.2894 45.0003ZM25.8929 22.1839L28.36 27.1069H12.052C15.5058 24.8876 20.3075 23.1586 25.8929 22.1839Z" fill="#022756"/>
</svg>
