<svg width="20" height="20" viewBox="0 0 20 20" fill="none" xmlns="http://www.w3.org/2000/svg">
<path d="M15 10.9837V8.33366C14.9988 7.15293 14.5798 6.01072 13.8172 5.1093C13.0546 4.20789 11.9976 3.60545 10.8334 3.40866V2.50033C10.8334 2.27931 10.7456 2.06735 10.5893 1.91107C10.433 1.75479 10.2211 1.66699 10 1.66699C9.77903 1.66699 9.56707 1.75479 9.41079 1.91107C9.2545 2.06735 9.16671 2.27931 9.16671 2.50033V3.40866C8.00249 3.60545 6.94548 4.20789 6.18286 5.1093C5.42025 6.01072 5.00124 7.15293 5.00004 8.33366V10.9837C4.51375 11.1556 4.09254 11.4737 3.79416 11.8944C3.49577 12.3152 3.33482 12.8179 3.33337 13.3337V15.0003C3.33337 15.2213 3.42117 15.4333 3.57745 15.5896C3.73373 15.7459 3.94569 15.8337 4.16671 15.8337H6.78337C6.97528 16.5398 7.39421 17.1632 7.97554 17.6076C8.55687 18.052 9.26829 18.2928 10 18.2928C10.7318 18.2928 11.4432 18.052 12.0245 17.6076C12.6059 17.1632 13.0248 16.5398 13.2167 15.8337H15.8334C16.0544 15.8337 16.2663 15.7459 16.4226 15.5896C16.5789 15.4333 16.6667 15.2213 16.6667 15.0003V13.3337C16.6653 12.8179 16.5043 12.3152 16.2059 11.8944C15.9075 11.4737 15.4863 11.1556 15 10.9837V10.9837ZM6.66671 8.33366C6.66671 7.4496 7.0179 6.60176 7.64302 5.97664C8.26814 5.35151 9.11599 5.00033 10 5.00033C10.8841 5.00033 11.7319 5.35151 12.3571 5.97664C12.9822 6.60176 13.3334 7.4496 13.3334 8.33366V10.8337H6.66671V8.33366ZM10 16.667C9.70918 16.6652 9.42385 16.5874 9.1724 16.4412C8.92095 16.295 8.71213 16.0856 8.56671 15.8337H11.4334C11.2879 16.0856 11.0791 16.295 10.8277 16.4412C10.5762 16.5874 10.2909 16.6652 10 16.667ZM15 14.167H5.00004V13.3337C5.00004 13.1126 5.08784 12.9007 5.24412 12.7444C5.4004 12.5881 5.61236 12.5003 5.83337 12.5003H14.1667C14.3877 12.5003 14.5997 12.5881 14.756 12.7444C14.9122 12.9007 15 13.1126 15 13.3337V14.167Z" fill="#71839B"/>
</svg>
