<svg width="20" height="20" viewBox="0 0 20 20" fill="none" xmlns="http://www.w3.org/2000/svg">
<path d="M8.33333 10.8336H3.33333C3.11232 10.8336 2.90036 10.9214 2.74408 11.0777C2.5878 11.2339 2.5 11.4459 2.5 11.6669V16.6669C2.5 16.8879 2.5878 17.0999 2.74408 17.2562C2.90036 17.4124 3.11232 17.5002 3.33333 17.5002H8.33333C8.55435 17.5002 8.76631 17.4124 8.92259 17.2562C9.07887 17.0999 9.16667 16.8879 9.16667 16.6669V11.6669C9.16667 11.4459 9.07887 11.2339 8.92259 11.0777C8.76631 10.9214 8.55435 10.8336 8.33333 10.8336ZM7.5 15.8336H4.16667V12.5002H7.5V15.8336ZM16.6667 2.50024H11.6667C11.4457 2.50024 11.2337 2.58804 11.0774 2.74432C10.9211 2.9006 10.8333 3.11256 10.8333 3.33358V8.33358C10.8333 8.55459 10.9211 8.76655 11.0774 8.92283C11.2337 9.07911 11.4457 9.16691 11.6667 9.16691H16.6667C16.8877 9.16691 17.0996 9.07911 17.2559 8.92283C17.4122 8.76655 17.5 8.55459 17.5 8.33358V3.33358C17.5 3.11256 17.4122 2.9006 17.2559 2.74432C17.0996 2.58804 16.8877 2.50024 16.6667 2.50024V2.50024ZM15.8333 7.50024H12.5V4.16691H15.8333V7.50024ZM16.6667 13.3336H15V11.6669C15 11.4459 14.9122 11.2339 14.7559 11.0777C14.5996 10.9214 14.3877 10.8336 14.1667 10.8336C13.9457 10.8336 13.7337 10.9214 13.5774 11.0777C13.4211 11.2339 13.3333 11.4459 13.3333 11.6669V13.3336H11.6667C11.4457 13.3336 11.2337 13.4214 11.0774 13.5777C10.9211 13.7339 10.8333 13.9459 10.8333 14.1669C10.8333 14.3879 10.9211 14.5999 11.0774 14.7562C11.2337 14.9124 11.4457 15.0002 11.6667 15.0002H13.3333V16.6669C13.3333 16.8879 13.4211 17.0999 13.5774 17.2562C13.7337 17.4124 13.9457 17.5002 14.1667 17.5002C14.3877 17.5002 14.5996 17.4124 14.7559 17.2562C14.9122 17.0999 15 16.8879 15 16.6669V15.0002H16.6667C16.8877 15.0002 17.0996 14.9124 17.2559 14.7562C17.4122 14.5999 17.5 14.3879 17.5 14.1669C17.5 13.9459 17.4122 13.7339 17.2559 13.5777C17.0996 13.4214 16.8877 13.3336 16.6667 13.3336ZM8.33333 2.50024H3.33333C3.11232 2.50024 2.90036 2.58804 2.74408 2.74432C2.5878 2.9006 2.5 3.11256 2.5 3.33358V8.33358C2.5 8.55459 2.5878 8.76655 2.74408 8.92283C2.90036 9.07911 3.11232 9.16691 3.33333 9.16691H8.33333C8.55435 9.16691 8.76631 9.07911 8.92259 8.92283C9.07887 8.76655 9.16667 8.55459 9.16667 8.33358V3.33358C9.16667 3.11256 9.07887 2.9006 8.92259 2.74432C8.76631 2.58804 8.55435 2.50024 8.33333 2.50024V2.50024ZM7.5 7.50024H4.16667V4.16691H7.5V7.50024Z" fill="#71839B"/>
</svg>
