<svg width="20" height="20" viewBox="0 0 20 20" fill="none" xmlns="http://www.w3.org/2000/svg">
<path d="M3.33329 16.6668C2.87496 16.6668 2.4826 16.5036 2.15621 16.1772C1.82982 15.8509 1.66663 15.4585 1.66663 15.0002V5.00016C1.66663 4.54183 1.82982 4.14947 2.15621 3.82308C2.4826 3.49669 2.87496 3.3335 3.33329 3.3335H8.33329L9.99996 5.00016H16.6666C17.125 5.00016 17.5173 5.16336 17.8437 5.48975C18.1701 5.81614 18.3333 6.2085 18.3333 6.66683V15.0002C18.3333 15.4585 18.1701 15.8509 17.8437 16.1772C17.5173 16.5036 17.125 16.6668 16.6666 16.6668H3.33329ZM3.33329 15.0002H16.6666V6.66683H9.31246L7.64579 5.00016H3.33329V15.0002Z" fill="#79747E"/>
</svg>
