<svg width="16" height="16" viewBox="0 0 16 16" fill="none" xmlns="http://www.w3.org/2000/svg">
<path d="M8 13.0002L11.3333 9.66691L10.1667 8.50024L8.83333 9.83358V6.33358H7.16667V9.83358L5.83333 8.50024L4.66667 9.66691L8 13.0002ZM2.16667 4.66691V13.8336H13.8333V4.66691H2.16667ZM2.16667 15.5002C1.70833 15.5002 1.3125 15.3405 0.979167 15.0211C0.659722 14.6877 0.5 14.2919 0.5 13.8336V3.43774C0.5 3.2433 0.527778 3.0558 0.583334 2.87524C0.652778 2.69469 0.75 2.52802 0.875 2.37524L1.91667 1.10441C2.06944 0.909966 2.25694 0.764133 2.47917 0.666911C2.71528 0.5558 2.95833 0.500244 3.20833 0.500244H12.7917C13.0417 0.500244 13.2778 0.5558 13.5 0.666911C13.7361 0.764133 13.9306 0.909966 14.0833 1.10441L15.125 2.37524C15.25 2.52802 15.3403 2.69469 15.3958 2.87524C15.4653 3.0558 15.5 3.2433 15.5 3.43774V13.8336C15.5 14.2919 15.3333 14.6877 15 15.0211C14.6806 15.3405 14.2917 15.5002 13.8333 15.5002H2.16667ZM2.5 3.00024H13.5L12.7917 2.16691H3.20833L2.5 3.00024Z" fill="#79747E"/>
</svg>
