<svg width="20" height="20" viewBox="0 0 20 20" fill="none" xmlns="http://www.w3.org/2000/svg">
<path d="M10.4916 10.8335L8.57496 12.7418C8.49685 12.8193 8.43486 12.9115 8.39255 13.013C8.35024 13.1146 8.32846 13.2235 8.32846 13.3335C8.32846 13.4435 8.35024 13.5524 8.39255 13.654C8.43486 13.7555 8.49685 13.8477 8.57496 13.9252C8.65243 14.0033 8.7446 14.0653 8.84615 14.1076C8.9477 14.1499 9.05662 14.1717 9.16663 14.1717C9.27664 14.1717 9.38556 14.1499 9.48711 14.1076C9.58866 14.0653 9.68082 14.0033 9.75829 13.9252L13.0916 10.5918C13.1675 10.5126 13.227 10.4191 13.2666 10.3168C13.35 10.1139 13.35 9.88638 13.2666 9.6835C13.227 9.58121 13.1675 9.48775 13.0916 9.4085L9.75829 6.07516C9.68059 5.99747 9.58835 5.93583 9.48683 5.89378C9.38532 5.85173 9.27651 5.83009 9.16663 5.83009C9.05674 5.83009 8.94794 5.85173 8.84642 5.89378C8.7449 5.93583 8.65266 5.99747 8.57496 6.07516C8.49726 6.15286 8.43563 6.2451 8.39358 6.34662C8.35153 6.44814 8.32988 6.55695 8.32988 6.66683C8.32988 6.77671 8.35153 6.88552 8.39358 6.98704C8.43563 7.08856 8.49726 7.1808 8.57496 7.2585L10.4916 9.16683H2.49996C2.27895 9.16683 2.06698 9.25463 1.9107 9.41091C1.75442 9.56719 1.66663 9.77915 1.66663 10.0002C1.66663 10.2212 1.75442 10.4331 1.9107 10.5894C2.06698 10.7457 2.27895 10.8335 2.49996 10.8335H10.4916ZM9.99996 1.66683C8.44254 1.65988 6.91433 2.08951 5.58868 2.90699C4.26304 3.72447 3.193 4.89709 2.49996 6.29183C2.4005 6.49074 2.38414 6.72102 2.45446 6.932C2.52479 7.14297 2.67605 7.31737 2.87496 7.41683C3.07387 7.51629 3.30415 7.53265 3.51512 7.46233C3.7261 7.392 3.9005 7.24074 3.99996 7.04183C4.52679 5.97793 5.32815 5.07401 6.32125 4.42349C7.31435 3.77296 8.46314 3.39943 9.64892 3.34149C10.8347 3.28355 12.0144 3.54331 13.0662 4.09392C14.118 4.64453 15.0037 5.46602 15.6317 6.47349C16.2598 7.48097 16.6074 8.63787 16.6386 9.82465C16.6699 11.0114 16.3837 12.185 15.8096 13.2242C15.2354 14.2633 14.3942 15.1303 13.3729 15.7355C12.3516 16.3407 11.1871 16.6623 9.99996 16.6668C8.75736 16.6722 7.53842 16.3271 6.48304 15.6712C5.42765 15.0153 4.57859 14.0751 4.03329 12.9585C3.93384 12.7596 3.75944 12.6083 3.54846 12.538C3.33748 12.4677 3.10721 12.484 2.90829 12.5835C2.70938 12.683 2.55812 12.8574 2.4878 13.0683C2.41747 13.2793 2.43384 13.5096 2.53329 13.7085C3.19398 15.0381 4.19789 16.167 5.44119 16.9785C6.68448 17.79 8.122 18.2547 9.60506 18.3243C11.0881 18.394 12.5629 18.0662 13.8767 17.3748C15.1906 16.6834 16.2959 15.6535 17.0784 14.3917C17.8608 13.1299 18.2919 11.6819 18.327 10.1977C18.3622 8.71339 18.0002 7.24666 17.2785 5.94919C16.5568 4.65172 15.5015 3.57064 14.2219 2.81775C12.9422 2.06487 11.4847 1.66753 9.99996 1.66683V1.66683Z" fill="#71839B"/>
</svg>
