<svg width="20" height="20" viewBox="0 0 20 20" fill="none" xmlns="http://www.w3.org/2000/svg">
<g clip-path="url(#clip0_228_4319)">
<path d="M17.5 10.6586C17.369 12.0771 16.8366 13.4289 15.9652 14.5559C15.0939 15.6829 13.9196 16.5384 12.5798 17.0224C11.24 17.5063 9.79003 17.5987 8.39962 17.2887C7.00922 16.9786 5.73587 16.279 4.72856 15.2717C3.72125 14.2644 3.02166 12.9911 2.71163 11.6007C2.4016 10.2103 2.49397 8.76031 2.97792 7.42049C3.46188 6.08067 4.3174 4.90638 5.44438 4.03504C6.57137 3.16369 7.9232 2.63133 9.34171 2.50024C8.51122 3.6238 8.11158 5.00812 8.21548 6.40142C8.31939 7.79473 8.91992 9.10446 9.90788 10.0924C10.8958 11.0804 12.2056 11.6809 13.5989 11.7848C14.9922 11.8887 16.3765 11.4891 17.5 10.6586Z" stroke="#3C3C43" stroke-opacity="0.29" stroke-width="4" stroke-linecap="round" stroke-linejoin="round"/>
</g>
<defs>
<clipPath id="clip0_228_4319">
<rect width="20" height="20" fill="white" transform="translate(0 0.000244141)"/>
</clipPath>
</defs>
</svg>
