<svg width="20" height="20" viewBox="0 0 20 20" fill="none" xmlns="http://www.w3.org/2000/svg">
<path d="M0 16.6668V14.3543C0 13.8821 0.118056 13.4446 0.354167 13.0418C0.590278 12.6391 0.916667 12.3335 1.33333 12.1252C1.52778 12.0279 1.71528 11.9377 1.89583 11.8543C2.09028 11.771 2.29167 11.6946 2.5 11.6252V16.6668H0ZM3.33333 10.8335C2.63889 10.8335 2.04861 10.5904 1.5625 10.1043C1.07639 9.61822 0.833333 9.02794 0.833333 8.3335C0.833333 7.63905 1.07639 7.04877 1.5625 6.56266C2.04861 6.07655 2.63889 5.8335 3.33333 5.8335C4.02778 5.8335 4.61806 6.07655 5.10417 6.56266C5.59028 7.04877 5.83333 7.63905 5.83333 8.3335C5.83333 9.02794 5.59028 9.61822 5.10417 10.1043C4.61806 10.5904 4.02778 10.8335 3.33333 10.8335ZM3.33333 9.16683C3.56944 9.16683 3.76389 9.09044 3.91667 8.93766C4.08333 8.771 4.16667 8.56961 4.16667 8.3335C4.16667 8.09739 4.08333 7.90294 3.91667 7.75016C3.76389 7.5835 3.56944 7.50016 3.33333 7.50016C3.09722 7.50016 2.89583 7.5835 2.72917 7.75016C2.57639 7.90294 2.5 8.09739 2.5 8.3335C2.5 8.56961 2.57639 8.771 2.72917 8.93766C2.89583 9.09044 3.09722 9.16683 3.33333 9.16683ZM3.33333 16.6668V14.3335C3.33333 13.8613 3.45139 13.4307 3.6875 13.0418C3.9375 12.6391 4.26389 12.3335 4.66667 12.1252C5.52778 11.6946 6.40278 11.3752 7.29167 11.1668C8.18056 10.9446 9.08333 10.8335 10 10.8335C10.9167 10.8335 11.8194 10.9446 12.7083 11.1668C13.5972 11.3752 14.4722 11.6946 15.3333 12.1252C15.7361 12.3335 16.0556 12.6391 16.2917 13.0418C16.5417 13.4307 16.6667 13.8613 16.6667 14.3335V16.6668H3.33333ZM5 15.0002H15V14.3335C15 14.1807 14.9583 14.0418 14.875 13.9168C14.8056 13.7918 14.7083 13.6946 14.5833 13.6252C13.8333 13.2502 13.0764 12.9724 12.3125 12.7918C11.5486 12.5974 10.7778 12.5002 10 12.5002C9.22222 12.5002 8.45139 12.5974 7.6875 12.7918C6.92361 12.9724 6.16667 13.2502 5.41667 13.6252C5.29167 13.6946 5.1875 13.7918 5.10417 13.9168C5.03472 14.0418 5 14.1807 5 14.3335V15.0002ZM10 10.0002C9.08333 10.0002 8.29861 9.67377 7.64583 9.021C6.99306 8.36822 6.66667 7.5835 6.66667 6.66683C6.66667 5.75016 6.99306 4.96544 7.64583 4.31266C8.29861 3.65989 9.08333 3.3335 10 3.3335C10.9167 3.3335 11.7014 3.65989 12.3542 4.31266C13.0069 4.96544 13.3333 5.75016 13.3333 6.66683C13.3333 7.5835 13.0069 8.36822 12.3542 9.021C11.7014 9.67377 10.9167 10.0002 10 10.0002ZM10 8.3335C10.4583 8.3335 10.8472 8.17377 11.1667 7.85433C11.5 7.521 11.6667 7.12516 11.6667 6.66683C11.6667 6.2085 11.5 5.81961 11.1667 5.50016C10.8472 5.16683 10.4583 5.00016 10 5.00016C9.54167 5.00016 9.14583 5.16683 8.8125 5.50016C8.49306 5.81961 8.33333 6.2085 8.33333 6.66683C8.33333 7.12516 8.49306 7.521 8.8125 7.85433C9.14583 8.17377 9.54167 8.3335 10 8.3335ZM16.6667 10.8335C15.9722 10.8335 15.3819 10.5904 14.8958 10.1043C14.4097 9.61822 14.1667 9.02794 14.1667 8.3335C14.1667 7.63905 14.4097 7.04877 14.8958 6.56266C15.3819 6.07655 15.9722 5.8335 16.6667 5.8335C17.3611 5.8335 17.9514 6.07655 18.4375 6.56266C18.9236 7.04877 19.1667 7.63905 19.1667 8.3335C19.1667 9.02794 18.9236 9.61822 18.4375 10.1043C17.9514 10.5904 17.3611 10.8335 16.6667 10.8335ZM16.6667 9.16683C16.9028 9.16683 17.0972 9.09044 17.25 8.93766C17.4167 8.771 17.5 8.56961 17.5 8.3335C17.5 8.09739 17.4167 7.90294 17.25 7.75016C17.0972 7.5835 16.9028 7.50016 16.6667 7.50016C16.4306 7.50016 16.2292 7.5835 16.0625 7.75016C15.9097 7.90294 15.8333 8.09739 15.8333 8.3335C15.8333 8.56961 15.9097 8.771 16.0625 8.93766C16.2292 9.09044 16.4306 9.16683 16.6667 9.16683ZM17.5 16.6668V11.6252C17.7083 11.6946 17.9028 11.771 18.0833 11.8543C18.2778 11.9377 18.4722 12.0279 18.6667 12.1252C19.0833 12.3335 19.4097 12.6391 19.6458 13.0418C19.8819 13.4446 20 13.8821 20 14.3543V16.6668H17.5Z" fill="#79747E"/>
</svg>
