<svg width="17" height="18" viewBox="0 0 17 18" fill="none" xmlns="http://www.w3.org/2000/svg">
<path d="M15.5833 9.55024C15.4497 9.39816 15.3761 9.20266 15.3761 9.00024C15.3761 8.79782 15.4497 8.60231 15.5833 8.45024L16.65 7.25024C16.7675 7.11913 16.8405 6.95416 16.8585 6.77899C16.8765 6.60383 16.8385 6.42748 16.75 6.27524L15.0833 3.3919C14.9957 3.23984 14.8624 3.1193 14.7023 3.04748C14.5422 2.97565 14.3635 2.9562 14.1917 2.9919L12.625 3.30857C12.4256 3.34976 12.2181 3.31656 12.0416 3.21524C11.865 3.11391 11.7317 2.95147 11.6667 2.75857L11.1583 1.23357C11.1024 1.06805 10.9959 0.924292 10.8539 0.822606C10.7118 0.720921 10.5414 0.666454 10.3667 0.666905H7.03333C6.85161 0.65742 6.67177 0.707677 6.5213 0.81C6.37082 0.912323 6.25798 1.06109 6.19999 1.23357L5.73333 2.75857C5.66833 2.95147 5.53497 3.11391 5.35842 3.21524C5.18187 3.31656 4.97434 3.34976 4.77499 3.30857L3.16666 2.9919C3.00379 2.96889 2.83774 2.99459 2.68945 3.06577C2.54116 3.13695 2.41725 3.25043 2.33333 3.3919L0.666662 6.27524C0.575962 6.42578 0.53518 6.60114 0.550147 6.77626C0.565114 6.95137 0.635064 7.11727 0.749995 7.25024L1.80833 8.45024C1.94193 8.60231 2.01561 8.79782 2.01561 9.00024C2.01561 9.20266 1.94193 9.39816 1.80833 9.55024L0.749995 10.7502C0.635064 10.8832 0.565114 11.0491 0.550147 11.2242C0.53518 11.3993 0.575962 11.5747 0.666662 11.7252L2.33333 14.6086C2.42091 14.7606 2.55426 14.8812 2.71437 14.953C2.87448 15.0248 3.05318 15.0443 3.225 15.0086L4.79166 14.6919C4.99101 14.6507 5.19854 14.6839 5.37509 14.7852C5.55164 14.8866 5.685 15.049 5.74999 15.2419L6.25833 16.7669C6.31631 16.9394 6.42916 17.0882 6.57963 17.1905C6.73011 17.2928 6.90994 17.3431 7.09166 17.3336H10.425C10.5997 17.334 10.7701 17.2796 10.9122 17.1779C11.0542 17.0762 11.1608 16.9324 11.2167 16.7669L11.725 15.2419C11.79 15.049 11.9234 14.8866 12.0999 14.7852C12.2764 14.6839 12.484 14.6507 12.6833 14.6919L14.25 15.0086C14.4218 15.0443 14.6005 15.0248 14.7606 14.953C14.9207 14.8812 15.0541 14.7606 15.1417 14.6086L16.8083 11.7252C16.8968 11.573 16.9348 11.3966 16.9168 11.2215C16.8989 11.0463 16.8259 10.8813 16.7083 10.7502L15.5833 9.55024ZM14.3417 10.6669L15.0083 11.4169L13.9417 13.2669L12.9583 13.0669C12.3581 12.9442 11.7338 13.0462 11.2038 13.3534C10.6738 13.6606 10.2751 14.1518 10.0833 14.7336L9.76666 15.6669H7.63333L7.33333 14.7169C7.14154 14.1351 6.74281 13.644 6.21283 13.3367C5.68285 13.0295 5.05851 12.9276 4.45833 13.0502L3.47499 13.2502L2.39166 11.4086L3.05833 10.6586C3.46829 10.2002 3.69494 9.60685 3.69494 8.9919C3.69494 8.37696 3.46829 7.78359 3.05833 7.32524L2.39166 6.57524L3.45833 4.7419L4.44166 4.94191C5.04185 5.06459 5.66618 4.96264 6.19617 4.6554C6.72615 4.34817 7.12487 3.85704 7.31666 3.27524L7.63333 2.33357H9.76666L10.0833 3.28357C10.2751 3.86537 10.6738 4.3565 11.2038 4.66374C11.7338 4.97097 12.3581 5.07292 12.9583 4.95024L13.9417 4.75024L15.0083 6.60024L14.3417 7.35024C13.9363 7.80754 13.7125 8.39747 13.7125 9.00857C13.7125 9.61967 13.9363 10.2096 14.3417 10.6669V10.6669ZM8.69999 5.66691C8.04072 5.66691 7.39626 5.8624 6.84809 6.22867C6.29993 6.59494 5.87269 7.11554 5.6204 7.72463C5.3681 8.33371 5.30209 9.00394 5.43071 9.65054C5.55933 10.2971 5.8768 10.8911 6.34297 11.3573C6.80915 11.8234 7.40309 12.1409 8.04969 12.2695C8.6963 12.3981 9.36652 12.3321 9.97561 12.0798C10.5847 11.8275 11.1053 11.4003 11.4716 10.8521C11.8378 10.304 12.0333 9.65951 12.0333 9.00024C12.0333 8.11618 11.6821 7.26834 11.057 6.64322C10.4319 6.01809 9.58405 5.66691 8.69999 5.66691V5.66691ZM8.69999 10.6669C8.37036 10.6669 8.04813 10.5692 7.77404 10.386C7.49996 10.2029 7.28634 9.94259 7.1602 9.63804C7.03405 9.3335 7.00104 8.99839 7.06535 8.67509C7.12966 8.35179 7.2884 8.05481 7.52148 7.82173C7.75457 7.58864 8.05154 7.4299 8.37484 7.3656C8.69815 7.30129 9.03326 7.33429 9.3378 7.46044C9.64234 7.58659 9.90264 7.80021 10.0858 8.07429C10.2689 8.34837 10.3667 8.6706 10.3667 9.00024C10.3667 9.44227 10.1911 9.86619 9.87851 10.1787C9.56595 10.4913 9.14202 10.6669 8.69999 10.6669Z" fill="#71839B"/>
</svg>
