<svg width="983" height="762" viewBox="0 0 983 762" fill="none" xmlns="http://www.w3.org/2000/svg">
<g opacity="0.8">
<path d="M441.252 165.611L528.089 304.05C537.89 303.881 547.742 303.814 557.658 303.814C583.071 303.814 608.158 304.341 632.834 305.361L441.252 0L230.737 335.545C267.298 327.87 306.077 321.448 346.625 316.439L441.252 165.611ZM285.37 299.416L441.257 50.9505L584.019 278.526C575.235 278.391 566.433 278.341 557.663 278.341C553.14 278.341 548.585 278.358 543.966 278.391L465.231 152.877L441.257 114.661L417.264 152.877L329.41 292.914C314.55 294.879 299.836 297.054 285.37 299.416Z" fill="white"/>
<path d="M312.144 762C203.564 718.091 137.209 659.327 137.209 594.765C137.209 573.277 144.555 552.438 158.37 532.565H775.381L662.97 353.405C705.736 350.137 750.023 348.417 795.377 348.417C856.467 348.417 915.623 351.533 971.742 357.373C968.507 356.407 965.175 355.497 961.885 354.556C965.175 355.492 968.511 356.407 971.742 357.369C975.513 357.757 979.256 358.153 983 358.571C973.107 356.264 963.044 354.063 952.794 351.963C952.79 351.959 952.785 351.959 952.776 351.955C861.123 333.148 755.668 322.383 643.432 322.269C642.767 322.256 642.094 322.256 641.429 322.256C615.884 322.256 590.695 322.809 565.933 323.884C557.681 324.242 549.474 324.66 541.318 325.132C463.118 329.644 389.61 339.376 323.471 353.329C317.757 354.535 312.098 355.771 306.494 357.036C267.279 365.908 230.856 376.298 197.813 387.982C75.9041 431.043 0 491.701 0 558.894C0 645.168 125.14 720.659 312.144 762ZM565.617 363.85L619.508 449.757H263.27C338.716 411.031 443.607 380.86 565.617 363.85Z" fill="white"/>
</g>
</svg>
