<svg width="44" height="44" viewBox="0 0 44 44" fill="none" xmlns="http://www.w3.org/2000/svg">
<rect opacity="0.8" x="0.5" y="0.5" width="43" height="43" rx="21.5" fill="white" stroke="#C3D4E9"/>
<path d="M22.02 12.9099C18.71 12.9099 16.02 15.5999 16.02 18.9099V21.7999C16.02 22.4099 15.76 23.3399 15.45 23.8599L14.3 25.7699C13.59 26.9499 14.08 28.2599 15.38 28.6999C19.69 30.1399 24.34 30.1399 28.65 28.6999C29.86 28.2999 30.39 26.8699 29.73 25.7699L28.58 23.8599C28.28 23.3399 28.02 22.4099 28.02 21.7999V18.9099C28.02 15.6099 25.32 12.9099 22.02 12.9099Z" stroke="#292D32" stroke-width="1.5" stroke-miterlimit="10" stroke-linecap="round"/>
<path d="M23.87 13.1999C23.56 13.1099 23.24 13.0399 22.91 12.9999C21.95 12.8799 21.03 12.9499 20.17 13.1999C20.46 12.4599 21.18 11.9399 22.02 11.9399C22.86 11.9399 23.58 12.4599 23.87 13.1999Z" stroke="#292D32" stroke-width="1.5" stroke-miterlimit="10" stroke-linecap="round" stroke-linejoin="round"/>
<path d="M25.02 29.0601C25.02 30.7101 23.67 32.0601 22.02 32.0601C21.2 32.0601 20.44 31.7201 19.9 31.1801C19.36 30.6401 19.02 29.8801 19.02 29.0601" stroke="#292D32" stroke-width="1.5" stroke-miterlimit="10"/>
</svg>
