<svg width="20" height="20" viewBox="0 0 20 20" fill="none" xmlns="http://www.w3.org/2000/svg">
<path d="M4.87496 14.2503C5.58329 13.7087 6.37496 13.2816 7.24996 12.9691C8.12496 12.6566 9.04163 12.5003 9.99996 12.5003C10.9583 12.5003 11.875 12.6566 12.75 12.9691C13.625 13.2816 14.4166 13.7087 15.125 14.2503C15.6111 13.6809 15.9895 13.035 16.2604 12.3128C16.5312 11.5906 16.6666 10.8198 16.6666 10.0003C16.6666 8.1531 16.0173 6.58019 14.7187 5.28158C13.4201 3.98296 11.8472 3.33366 9.99996 3.33366C8.15274 3.33366 6.57982 3.98296 5.28121 5.28158C3.9826 6.58019 3.33329 8.1531 3.33329 10.0003C3.33329 10.8198 3.46871 11.5906 3.73954 12.3128C4.01038 13.035 4.38885 13.6809 4.87496 14.2503ZM9.99996 10.8337C9.18052 10.8337 8.48954 10.5524 7.92704 9.98991C7.36454 9.42741 7.08329 8.73644 7.08329 7.91699C7.08329 7.09755 7.36454 6.40658 7.92704 5.84408C8.48954 5.28158 9.18052 5.00033 9.99996 5.00033C10.8194 5.00033 11.5104 5.28158 12.0729 5.84408C12.6354 6.40658 12.9166 7.09755 12.9166 7.91699C12.9166 8.73644 12.6354 9.42741 12.0729 9.98991C11.5104 10.5524 10.8194 10.8337 9.99996 10.8337ZM9.99996 18.3337C8.84718 18.3337 7.76385 18.1149 6.74996 17.6774C5.73607 17.2399 4.85413 16.6462 4.10413 15.8962C3.35413 15.1462 2.76038 14.2642 2.32288 13.2503C1.88538 12.2364 1.66663 11.1531 1.66663 10.0003C1.66663 8.84755 1.88538 7.76421 2.32288 6.75033C2.76038 5.73644 3.35413 4.85449 4.10413 4.10449C4.85413 3.35449 5.73607 2.76074 6.74996 2.32324C7.76385 1.88574 8.84718 1.66699 9.99996 1.66699C11.1527 1.66699 12.2361 1.88574 13.25 2.32324C14.2638 2.76074 15.1458 3.35449 15.8958 4.10449C16.6458 4.85449 17.2395 5.73644 17.677 6.75033C18.1145 7.76421 18.3333 8.84755 18.3333 10.0003C18.3333 11.1531 18.1145 12.2364 17.677 13.2503C17.2395 14.2642 16.6458 15.1462 15.8958 15.8962C15.1458 16.6462 14.2638 17.2399 13.25 17.6774C12.2361 18.1149 11.1527 18.3337 9.99996 18.3337Z" fill="#79747E"/>
</svg>
