<svg width="568" height="568" viewBox="0 0 568 568" fill="none" xmlns="http://www.w3.org/2000/svg">
<circle cx="284" cy="284" r="284" fill="#7573FF" fill-opacity="0.04"/>
<circle cx="284" cy="284" r="202" fill="#7573FF" fill-opacity="0.04"/>
<circle cx="284" cy="284" r="160" fill="#7573FF" fill-opacity="0.04"/>
<g opacity="0.4" clip-path="url(#clip0_37_1560)">
<path d="M324 252H316V236.88C316 228.393 312.629 220.254 306.627 214.253C300.626 208.251 292.487 204.88 284 204.88C275.513 204.88 267.374 208.251 261.373 214.253C255.371 220.254 252 228.393 252 236.88V252H244C237.635 252 231.53 254.529 227.029 259.029C222.529 263.53 220 269.635 220 276V340C220 346.365 222.529 352.47 227.029 356.971C231.53 361.471 237.635 364 244 364H324C330.365 364 336.47 361.471 340.971 356.971C345.471 352.47 348 346.365 348 340V276C348 269.635 345.471 263.53 340.971 259.029C336.47 254.529 330.365 252 324 252ZM268 236.88C267.892 232.522 269.516 228.3 272.514 225.136C275.513 221.972 279.643 220.126 284 220C288.357 220.126 292.487 221.972 295.486 225.136C298.484 228.3 300.108 232.522 300 236.88V252H268V236.88ZM332 340C332 342.122 331.157 344.157 329.657 345.657C328.157 347.157 326.122 348 324 348H244C241.878 348 239.843 347.157 238.343 345.657C236.843 344.157 236 342.122 236 340V276C236 273.878 236.843 271.843 238.343 270.343C239.843 268.843 241.878 268 244 268H324C326.122 268 328.157 268.843 329.657 270.343C331.157 271.843 332 273.878 332 276V340Z" fill="#007AFF"/>
<path d="M284 284C279.253 284 274.613 285.408 270.666 288.045C266.72 290.682 263.643 294.43 261.827 298.816C260.01 303.201 259.535 308.027 260.461 312.682C261.387 317.338 263.673 321.614 267.029 324.971C270.386 328.327 274.662 330.613 279.318 331.539C283.973 332.465 288.799 331.99 293.184 330.173C297.57 328.357 301.318 325.28 303.955 321.334C306.592 317.387 308 312.747 308 308C308 301.635 305.471 295.53 300.971 291.029C296.47 286.529 290.365 284 284 284ZM284 316C282.418 316 280.871 315.531 279.555 314.652C278.24 313.773 277.214 312.523 276.609 311.061C276.003 309.6 275.845 307.991 276.154 306.439C276.462 304.887 277.224 303.462 278.343 302.343C279.462 301.224 280.887 300.462 282.439 300.154C283.991 299.845 285.6 300.003 287.061 300.609C288.523 301.214 289.773 302.24 290.652 303.555C291.531 304.871 292 306.418 292 308C292 310.122 291.157 312.157 289.657 313.657C288.157 315.157 286.122 316 284 316Z" fill="#007AFF"/>
</g>
<defs>
<clipPath id="clip0_37_1560">
<rect width="192" height="192" fill="white" transform="translate(188 188)"/>
</clipPath>
</defs>
</svg>
