<svg width="60" height="60" viewBox="0 0 60 60" fill="none" xmlns="http://www.w3.org/2000/svg">
<rect width="60" height="60" rx="30" fill="#F1F6FF"/>
<g clip-path="url(#clip0_37_1623)">
<path d="M39.3332 19.3333H20.6665C19.6056 19.3333 18.5882 19.7548 17.8381 20.5049C17.0879 21.2551 16.6665 22.2725 16.6665 23.3333V36.6667C16.6665 37.7275 17.0879 38.745 17.8381 39.4951C18.5882 40.2452 19.6056 40.6667 20.6665 40.6667H39.3332C40.394 40.6667 41.4115 40.2452 42.1616 39.4951C42.9117 38.745 43.3332 37.7275 43.3332 36.6667V23.3333C43.3332 22.2725 42.9117 21.2551 42.1616 20.5049C41.4115 19.7548 40.394 19.3333 39.3332 19.3333V19.3333ZM38.4398 22L29.9998 28.3333L21.5598 22H38.4398ZM39.3332 38H20.6665C20.3129 38 19.9737 37.8595 19.7237 37.6095C19.4736 37.3594 19.3332 37.0203 19.3332 36.6667V23.6667L29.1998 31.0667C29.4306 31.2398 29.7113 31.3333 29.9998 31.3333C30.2883 31.3333 30.569 31.2398 30.7998 31.0667L40.6665 23.6667V36.6667C40.6665 37.0203 40.526 37.3594 40.276 37.6095C40.0259 37.8595 39.6868 38 39.3332 38Z" fill="#899CC9"/>
</g>
<defs>
<clipPath id="clip0_37_1623">
<rect width="32" height="32" fill="white" transform="translate(14 14)"/>
</clipPath>
</defs>
</svg>
