<svg width="60" height="60" viewBox="0 0 60 60" fill="none" xmlns="http://www.w3.org/2000/svg">
<rect width="60" height="60" rx="30" fill="#F1F6FF"/>
<g clip-path="url(#clip0_37_1498)">
<path d="M36.6666 24.6667H35.3333V22.1467C35.3333 20.7322 34.7713 19.3756 33.7712 18.3754C32.771 17.3752 31.4144 16.8133 29.9999 16.8133C28.5854 16.8133 27.2289 17.3752 26.2287 18.3754C25.2285 19.3756 24.6666 20.7322 24.6666 22.1467V24.6667H23.3333C22.2724 24.6667 21.255 25.0881 20.5048 25.8382C19.7547 26.5884 19.3333 27.6058 19.3333 28.6667V39.3333C19.3333 40.3942 19.7547 41.4116 20.5048 42.1618C21.255 42.9119 22.2724 43.3333 23.3333 43.3333H36.6666C37.7275 43.3333 38.7449 42.9119 39.495 42.1618C40.2452 41.4116 40.6666 40.3942 40.6666 39.3333V28.6667C40.6666 27.6058 40.2452 26.5884 39.495 25.8382C38.7449 25.0881 37.7275 24.6667 36.6666 24.6667ZM27.3333 22.1467C27.3153 21.4204 27.5858 20.7166 28.0856 20.1893C28.5854 19.6621 29.2737 19.3543 29.9999 19.3333C30.7261 19.3543 31.4144 19.6621 31.9142 20.1893C32.414 20.7166 32.6845 21.4204 32.6666 22.1467V24.6667H27.3333V22.1467ZM37.9999 39.3333C37.9999 39.687 37.8594 40.0261 37.6094 40.2761C37.3593 40.5262 37.0202 40.6667 36.6666 40.6667H23.3333C22.9796 40.6667 22.6405 40.5262 22.3904 40.2761C22.1404 40.0261 21.9999 39.687 21.9999 39.3333V28.6667C21.9999 28.313 22.1404 27.9739 22.3904 27.7239C22.6405 27.4738 22.9796 27.3333 23.3333 27.3333H36.6666C37.0202 27.3333 37.3593 27.4738 37.6094 27.7239C37.8594 27.9739 37.9999 28.313 37.9999 28.6667V39.3333Z" fill="#899CC9"/>
<path d="M30 30C29.2089 30 28.4355 30.2346 27.7777 30.6741C27.1199 31.1136 26.6072 31.7384 26.3045 32.4693C26.0017 33.2002 25.9225 34.0044 26.0769 34.7804C26.2312 35.5563 26.6122 36.269 27.1716 36.8284C27.731 37.3878 28.4437 37.7688 29.2196 37.9231C29.9956 38.0775 30.7998 37.9983 31.5307 37.6955C32.2616 37.3928 32.8864 36.8801 33.3259 36.2223C33.7654 35.5645 34 34.7911 34 34C34 32.9391 33.5786 31.9217 32.8284 31.1716C32.0783 30.4214 31.0609 30 30 30ZM30 35.3333C29.7363 35.3333 29.4785 35.2551 29.2592 35.1086C29.04 34.9621 28.8691 34.7539 28.7682 34.5102C28.6672 34.2666 28.6408 33.9985 28.6923 33.7399C28.7437 33.4812 28.8707 33.2437 29.0572 33.0572C29.2437 32.8707 29.4812 32.7437 29.7399 32.6923C29.9985 32.6408 30.2666 32.6672 30.5102 32.7682C30.7539 32.8691 30.9621 33.04 31.1086 33.2592C31.2551 33.4785 31.3333 33.7363 31.3333 34C31.3333 34.3536 31.1929 34.6928 30.9428 34.9428C30.6928 35.1929 30.3536 35.3333 30 35.3333Z" fill="#899CC9"/>
</g>
<defs>
<clipPath id="clip0_37_1498">
<rect width="32" height="32" fill="white" transform="translate(14 14)"/>
</clipPath>
</defs>
</svg>
