<svg width="24" height="24" viewBox="0 0 24 24" fill="none" xmlns="http://www.w3.org/2000/svg">
<path d="M4.20999 20.5201C4.11375 20.5211 4.01826 20.503 3.92902 20.467C3.83977 20.431 3.75854 20.3776 3.68999 20.3101C3.61139 20.2324 3.55092 20.1384 3.51288 20.0347C3.47485 19.931 3.4602 19.8201 3.46999 19.7101L3.77999 15.8701C3.79328 15.6917 3.87156 15.5245 3.99999 15.4001L15.06 4.34007C15.6762 3.76298 16.4961 3.45373 17.34 3.48007C18.1784 3.48658 18.9828 3.81193 19.59 4.39007C20.1723 4.98807 20.5073 5.78403 20.5277 6.61849C20.5481 7.45296 20.2524 8.26433 19.7 8.89007L8.62999 20.0001C8.50609 20.1235 8.34386 20.2011 8.16999 20.2201L4.27999 20.5701L4.20999 20.5201ZM5.20999 16.2601L4.99999 19.0001L7.73999 18.7501L18.64 7.83007C18.8525 7.57855 18.9884 7.2713 19.0314 6.94485C19.0745 6.61839 19.0229 6.28643 18.8828 5.98842C18.7428 5.6904 18.5201 5.43886 18.2413 5.26366C17.9625 5.08846 17.6393 4.99697 17.31 5.00007C17.0936 4.98633 16.8766 5.01645 16.6721 5.08862C16.4676 5.16079 16.2798 5.27353 16.12 5.42007L5.20999 16.2601Z" fill="black"/>
</svg>
